<svg width="35" height="35" viewBox="0 0 35 35" version="1.1" xmlns="http://www.w3.org/2000/svg" xmlns:xlink="http://www.w3.org/1999/xlink">
<g id="Canvas" fill="none">
<g id="Group">
<g id="docker-tile">
<g id="Rectangle">
<rect width="35" height="35" rx="5" fill="#066DA5"/>
</g>
<g id="Vector">
<path d="M 15.6865 8.88672L 18.5576 8.88672L 18.5576 6.28906L 15.6865 6.28906L 15.6865 8.88672ZM 12.2685 8.88672L 15.1396 8.88672L 15.1396 6.28906L 12.2685 6.28906L 12.2685 8.88672ZM 8.91893 8.88672L 11.79 8.88672L 11.79 6.28906L 8.91893 6.28906L 8.91893 8.88672ZM 5.56932 8.88672L 8.37206 8.88672L 8.37206 6.28906L 5.56932 6.28906L 5.56932 8.88672ZM 2.15135 8.88672L 5.02245 8.88672L 5.02245 6.28906L 2.15135 6.28906L 2.15135 8.88672ZM 5.56932 5.74219L 8.37206 5.74219L 8.37206 3.14453L 5.56932 3.14453L 5.56932 5.74219ZM 8.91893 5.74219L 11.79 5.74219L 11.79 3.14453L 8.91893 3.14453L 8.91893 5.74219ZM 12.2685 5.74219L 15.1396 5.74219L 15.1396 3.14453L 12.2685 3.14453L 12.2685 5.74219ZM 12.2685 2.59766L 15.1396 2.59766L 15.1396 0L 12.2685 0L 12.2685 2.59766ZM 27.7178 7.72461C 27.7178 7.72461 26.4873 6.5625 23.958 6.97266C 23.6846 4.99023 21.5654 3.82812 21.5654 3.82812C 21.5654 3.82812 19.583 6.2207 21.0185 8.88672C 20.6084 9.0918 19.9248 9.36523 18.8994 9.36523L 0.100573 9.36523C -0.241224 10.6641 -0.241224 19.2773 9.19237 19.2773C 15.9599 19.2773 21.0185 16.1328 23.4111 10.3906C 26.9658 10.6641 27.7178 7.72461 27.7178 7.72461Z" transform="translate(4.54785 7.86133)" fill="white"/>
</g>
</g>
</g>
</g>
</svg>

