<svg width="26" height="36" viewBox="0 0 26 36" version="1.1" xmlns="http://www.w3.org/2000/svg" xmlns:xlink="http://www.w3.org/1999/xlink">
<g id="Canvas" fill="none">
<g id="FriendBot_favicon">
<g id="Vector">
<path d="M 0.510359 0L 0 0L 0 4.17174L 0.510359 4.17174L 0.510359 0Z" transform="translate(12.7993 2.6261)" fill="#269AC0"/>
</g>
<g id="Group">
<g id="Vector_2">
<path d="M 1.48872 3.04224C 0.667805 3.04224 2.64774e-07 2.3599 2.64774e-07 1.52112C 2.64774e-07 0.68234 0.667805 -1.54166e-08 1.48872 -1.54166e-08C 2.30963 -1.54166e-08 2.97744 0.68234 2.97744 1.52112C 2.97744 2.3599 2.30963 3.04224 1.48872 3.04224ZM 1.48872 0.782201C 1.09013 0.782201 0.765539 1.11359 0.765539 1.52112C 0.765539 1.92865 1.08987 2.26004 1.48872 2.26004C 1.88756 2.26004 2.2119 1.92865 2.2119 1.52112C 2.2119 1.11359 1.88756 0.782201 1.48872 0.782201Z" transform="translate(11.6724 0)" fill="#269AC0"/>
</g>
</g>
<g id="Vector_3">
<path d="M 6.23557 3.17058C 4.06705 3.17058 2.11493 2.2335 0.732366 0.736889C 0.570837 0.562458 0.49658 0.380989 0.363631 0.191436C 0.144432 -0.121184 2.18049e-07 -0.0398351 2.18049e-07 0.354655L 2.18049e-07 1.0688L 2.18049e-07 2.40454L 2.18049e-07 3.11843C 2.18049e-07 3.51292 0.143411 4.0164 0.365672 4.26357C 0.499897 4.41271 0.601969 4.55638 0.757373 4.6943C 2.23563 6.00293 4.14386 6.79738 6.24884 6.79738C 8.34055 6.79738 10.2534 6.01257 11.7275 4.71881C 11.8727 4.59184 11.9985 4.4599 12.1478 4.32354C 12.3941 4.098 12.5041 3.54786 12.5041 3.1565L 12.5041 2.44808L 12.5041 1.10113L 12.5041 0.392981C 12.5041 0.00162036 12.4022 -0.0320138 12.154 0.258183C 12.0039 0.433917 11.8544 0.602872 11.7023 0.76583C 10.321 2.24601 8.38903 3.17058 6.23557 3.17058Z" transform="translate(6.67529 28.837)" fill="#2BB5E2"/>
</g>
<g id="Vector_4">
<path d="M 3.0397 1.65357C 4.02801 1.65357 4.91757 2.08065 5.54812 2.76273C 5.62135 2.84226 5.64917 2.92517 5.7099 3.01121C 5.81019 3.15383 5.86939 3.11655 5.86939 2.9369L 5.86939 2.61151L 5.86939 2.00269L 5.86939 1.67704C 5.86939 1.49739 5.81095 1.26769 5.70862 1.15531C 5.64764 1.08726 5.60425 1.02155 5.53306 0.958978C 4.85913 0.36242 3.99101 -1.19354e-07 3.03153 -1.19354e-07C 2.07818 -1.19354e-07 1.20751 0.357726 0.535367 0.947506C 0.469786 1.00539 0.321016 1.06536 0.252883 1.12741C 0.14086 1.2304 7.78746e-08 1.48071 7.78746e-08 1.65931L 7.78746e-08 1.9821L 7.78746e-08 2.59586L 7.78746e-08 2.91891C 7.78746e-08 3.09699 0.138053 3.11212 0.251097 2.97966C 0.319485 2.89962 0.432529 2.82244 0.501683 2.74839C 1.13121 2.07466 2.05777 1.65357 3.0397 1.65357Z" transform="translate(9.99268 4.35242)" fill="#269AC0"/>
</g>
<g id="Vector_5">
<path d="M 6.23557 3.17054C 4.06705 3.17054 2.11493 2.2332 0.732366 0.73711C 0.570837 0.562679 0.49658 0.380687 0.363631 0.191134C 0.144432 -0.120964 2.18049e-07 -0.0398764 2.18049e-07 0.354353L 2.18049e-07 1.06876L 2.18049e-07 2.40398L 2.18049e-07 3.11813C 2.18049e-07 3.51262 0.143411 4.0161 0.365672 4.26353C 0.499897 4.41241 0.601969 4.55607 0.757373 4.694C 2.23563 6.00288 4.14386 6.79708 6.24884 6.79708C 8.34055 6.79708 10.2534 6.01227 11.7275 4.71851C 11.8727 4.59179 11.9985 4.45986 12.1478 4.32324C 12.3941 4.09796 12.5041 3.54782 12.5041 3.15646L 12.5041 2.44778L 12.5041 1.1011L 12.5041 0.392681C 12.5041 0.00132033 12.4022 -0.032314 12.154 0.258143C 12.0039 0.433617 11.8544 0.602833 11.7023 0.76553C 10.321 2.24598 8.38903 3.17054 6.23557 3.17054Z" transform="translate(6.67529 25.4606)" fill="#269AC0"/>
</g>
<g id="Vector_6">
<path d="M 4.96451e-08 12.3416C 4.96451e-08 19.1577 5.40802 24.6829 12.0787 24.6829C 18.7498 24.6829 24.1573 19.1577 24.1573 12.3416C 24.1573 5.5252 18.7498 9.54835e-08 12.0787 9.54835e-08C 5.40802 9.54835e-08 4.96451e-08 5.5252 4.96451e-08 12.3416Z" transform="translate(0.976074 5.86755)" fill="#2BB5E2"/>
</g>
<g id="Group_2">
<g id="Group_3">
<g id="Group_4">
<g id="Group_5" opacity="0.1">
<g id="Group_6" opacity="0.1">
<g id="Vector_7" opacity="0.1">
<path d="M 12.4788 13.6233C 12.4788 21.1473 9.68534 27.2467 6.2394 27.2467C 2.79294 27.2467 6.22997e-08 21.1473 6.22997e-08 13.6233C 6.22997e-08 6.0996 2.79294 1.90967e-07 6.2394 1.90967e-07C 9.68509 1.90967e-07 12.4788 6.09934 12.4788 13.6233Z" transform="translate(6.74268 4.60718)" fill="white"/>
</g>
</g>
</g>
<g id="Group_7">
<g id="Group_8">
<g id="Group_9" opacity="0.7">
<g id="Group_10" opacity="0.7">
<g id="Vector_8" opacity="0.7">
<path d="M 13.0884 17.2334C 19.9783 17.2298 25.4838 11.823 25.89 4.94794C 22.5022 1.80845 17.921 3.02364e-07 13.0723 3.02364e-07L 12.8172 3.02364e-07C 7.88352 3.02364e-07 3.38776 1.80845 7.05739e-09 4.94794C 0.406246 11.823 5.98728 17.1753 12.8172 17.1784" transform="translate(0 11.491)" fill="#269AC0"/>
</g>
</g>
</g>
</g>
<g id="Group_11" opacity="0.1">
<g id="Group_12" opacity="0.1">
<g id="Group_13" opacity="0.1">
<g id="Vector_9" opacity="0.1">
<path d="M 6.12431 0L 0 0L 0 5.73614L 6.12431 5.73614L 6.12431 0Z" transform="translate(9.7373 30.2638)" fill="#ADDCE5"/>
</g>
</g>
</g>
</g>
<g id="Vector_10">
<path d="M 13.1275 17.0165C 20.0173 17.0129 25.4838 11.6926 25.8903 4.81757C 22.502 1.67808 17.921 3.02364e-07 13.0726 3.02364e-07L 12.8174 3.02364e-07C 7.88378 3.02364e-07 3.38777 1.67808 -6.32732e-09 4.81757C 0.405991 11.6926 5.98728 16.9797 12.8174 16.9829" transform="translate(0.109375 10.9696)" fill="#A6D5E3"/>
</g>
<g id="Vector_11">
<path d="M 0 1.9555C 0 3.03598 0.399611 3.911 0.893129 3.911C 1.38665 3.911 1.78626 3.03598 1.78626 1.9555C 1.78626 0.875283 1.38665 2.8645e-07 0.893129 2.8645e-07C 0.399611 2.8645e-07 0 0.875283 0 1.9555Z" transform="translate(9.81885 16.6442)" fill="#223C43"/>
</g>
<g id="Vector_12">
<path d="M 0 1.9555C 0 3.03598 0.399611 3.911 0.893129 3.911C 1.3869 3.911 1.78626 3.03598 1.78626 1.9555C 1.78626 0.875283 1.3869 2.8645e-07 0.893129 2.8645e-07C 0.399611 2.8645e-07 0 0.875283 0 1.9555Z" transform="translate(14.4126 16.6442)" fill="#223C43"/>
</g>
<g id="Group_14" opacity="0.2">
<g id="Group_15" opacity="0.2">
<g id="Group_16" opacity="0.2">
<g id="Vector_13" opacity="0.2">
<path d="M 4.50698 12.6964C 3.64932 10.5584 3.06216 7.61994 3.06216 4.26769C 3.06216 2.74839 3.18286 1.31384 3.39414 1.8301e-07C 2.22236 0.445333 1.12254 1.00774 0.103603 1.68747C 0.0362354 2.5226 1.12918e-07 3.38354 1.12918e-07 4.26769C 1.12918e-07 5.88502 0.116617 7.42804 0.334796 8.86859C 1.38996 10.4611 2.81387 11.7721 4.50698 12.6964Z" transform="translate(3.33398 12.9199)" fill="white"/>
</g>
</g>
</g>
</g>
</g>
</g>
</g>
</g>
</g>
</g>
</svg>

