<svg width="35" height="35" viewBox="0 0 35 35" version="1.1" xmlns="http://www.w3.org/2000/svg" xmlns:xlink="http://www.w3.org/1999/xlink">
<g id="Canvas" fill="none">
<g id="logomark">
<g id="Press">
<g id="press v4">
<g id="logo resources">
<g id="Group 14">
<g id="Group 14 Copy 5">
<g id="logomark_2">
<g id="logo v1 01">
<g id="Layer 1">
<g id="Page 1 1">
<g id="logo">
<g id="Page 1">
<g id="logo text dark jm">
<g id="Combined Shape">
<path fill-rule="evenodd" clip-rule="evenodd" d="M 24.6884 12.378C 24.867 12.4664 25.016 12.5841 25.1351 12.7166C 25.15 12.7313 25.15 12.7313 25.1649 12.7313L 25.1797 12.7313L 28.6046 11.2742C 28.6194 11.2595 28.6343 11.2447 28.6343 11.23C 28.6343 11.2153 28.6343 11.2006 28.6194 11.1859L 25.418 8.02145C 25.4031 8.00673 25.3882 8.00673 25.3882 8.00673L 25.3733 8.00673C 25.3584 8.00673 25.3435 8.02145 25.3435 8.05088L 24.6437 12.3339C 24.6586 12.3486 24.6735 12.378 24.6884 12.378ZM 17.5856 9.50799C 17.7494 9.7582 17.8536 10.0526 17.8834 10.3469C 17.8834 10.3616 17.8983 10.3764 17.9132 10.3911L 23.0057 12.5547L 23.0206 12.5547C 23.0355 12.5547 23.0504 12.5547 23.0504 12.5399C 23.1993 12.4222 23.378 12.3339 23.5716 12.275C 23.5865 12.275 23.6014 12.2603 23.6014 12.2309L 24.4352 7.06476C 24.4352 7.05004 24.4352 7.03532 24.4203 7.02061L 21.2338 3.85618C 21.2189 3.84146 21.2189 3.84146 21.204 3.84146C 21.1891 3.84146 21.1742 3.85618 21.1742 3.8709L 17.5856 9.4344C 17.5707 9.46383 17.5707 9.49327 17.5856 9.50799ZM 34.9777 17.4706L 29.5129 12.0542C 29.498 12.0395 29.4831 12.0395 29.4831 12.0395L 29.4682 12.0395L 25.7605 13.6144C 25.7456 13.6291 25.7307 13.6438 25.7307 13.6585C 25.7307 13.6733 25.7456 13.7027 25.7605 13.7027L 34.9032 17.5736L 34.9181 17.5736C 34.933 17.5736 34.9479 17.5736 34.9479 17.5589L 34.9777 17.5294C 35.0074 17.5294 35.0074 17.4853 34.9777 17.4706ZM 34.0693 18.3537L 25.2989 14.6447L 25.284 14.6447C 25.2691 14.6447 25.2542 14.6447 25.2393 14.6594C 25.0011 14.9832 24.6437 15.1892 24.2268 15.2481C 24.2119 15.2481 24.1821 15.2628 24.1821 15.2923L 23.244 21.0471C 23.244 21.0618 23.244 21.0765 23.2589 21.0913C 23.5865 21.3415 23.78 21.7094 23.8247 22.1215C 23.8247 22.151 23.8396 22.1657 23.8694 22.1657L 29.1704 23.2696L 29.1853 23.2696C 29.2002 23.2696 29.2151 23.2696 29.2151 23.2548L 34.0693 18.442C 34.0842 18.4273 34.0842 18.4125 34.0842 18.3978C 34.0842 18.3831 34.0842 18.3684 34.0693 18.3537ZM 22.4548 13.4378L 17.6601 11.4066L 17.6452 11.4066C 17.6303 11.4066 17.6154 11.4214 17.6005 11.4361C 17.2729 11.9365 16.722 12.2309 16.1264 12.2309C 16.037 12.2309 15.9477 12.2161 15.8434 12.2014L 15.8285 12.2014C 15.8137 12.2014 15.7988 12.2161 15.7839 12.2309L 11.8379 18.3389C 11.823 18.3537 11.823 18.3831 11.8379 18.3978C 11.8528 18.4125 11.8677 18.4125 11.8826 18.4125L 11.8975 18.4125L 22.425 13.9235C 22.4399 13.9087 22.4548 13.894 22.4548 13.8793L 22.4548 13.8204L 22.4548 13.7468C 22.4548 13.6585 22.4697 13.5702 22.4846 13.4966C 22.4846 13.4672 22.4697 13.4525 22.4548 13.4378ZM 28.2323 24.1232L 23.5716 23.1665L 23.5567 23.1665C 23.5418 23.1665 23.5269 23.1812 23.512 23.1812C 23.3333 23.402 23.11 23.5786 22.8419 23.6817C 22.8271 23.6817 22.8122 23.7111 22.8122 23.7258L 21.6954 30.5845C 21.6954 30.614 21.7103 30.6287 21.7252 30.6434L 21.7549 30.6434C 21.7698 30.6434 21.7847 30.6434 21.7847 30.6287L 28.2472 24.2262C 28.2621 24.2115 28.2621 24.1968 28.2621 24.1821C 28.2621 24.1379 28.2472 24.1232 28.2323 24.1232ZM 21.7252 23.6522C 21.2785 23.4756 20.9509 23.0782 20.8317 22.622C 20.8317 22.6072 20.8168 22.5925 20.7871 22.5778L 12.1506 20.7969C 12.1506 20.7969 12.1506 20.7969 12.1357 20.7969C 12.1208 20.7969 12.1059 20.8116 12.091 20.8263C 12.0464 20.8999 12.0166 20.9588 11.9719 21.0177C 11.957 21.0324 11.957 21.0618 11.9719 21.0765L 19.8341 32.439C 19.849 32.4537 19.849 32.4537 19.8639 32.4537C 19.8787 32.4537 19.8936 32.4537 19.8936 32.439L 20.3701 31.968C 20.3701 31.9533 20.385 31.9533 20.385 31.9386L 21.7252 23.6964C 21.7549 23.6964 21.7549 23.6669 21.7252 23.6522ZM 12.3293 19.7519C 12.3293 19.7813 12.3442 19.796 12.374 19.796L 20.936 21.5622L 20.9509 21.5622C 20.9658 21.5622 20.9806 21.5475 20.9955 21.5328C 21.2487 21.0913 21.6954 20.7969 22.2017 20.7675C 22.2314 20.7675 22.2463 20.7527 22.2463 20.7233L 23.1695 15.0568C 23.1695 15.0421 23.1695 15.0126 23.1398 15.0126C 23.0802 14.9685 23.0206 14.9243 22.9462 14.8507C 22.9313 14.836 22.9164 14.836 22.9164 14.836L 22.9015 14.836L 12.3144 19.3545C 12.2846 19.3692 12.2846 19.3839 12.2846 19.4134C 12.2995 19.5311 12.3293 19.6341 12.3293 19.7519ZM 8.74069 21.1796C 8.69602 21.1207 8.65135 21.0618 8.60668 20.9882C 8.59179 20.9735 8.5769 20.9588 8.56201 20.9588L 8.54712 20.9588L 4.85429 22.5336C 4.8394 22.5336 4.82451 22.5484 4.82451 22.5631C 4.82451 22.5778 4.82451 22.5925 4.8394 22.6072L 6.64114 24.3881C 6.65603 24.4029 6.67092 24.4029 6.67092 24.4029C 6.68581 24.4029 6.7007 24.3881 6.71559 24.3734L 8.75558 21.209C 8.75558 21.209 8.75558 21.1943 8.74069 21.1796ZM 11.1827 21.7536C 11.1678 21.7389 11.1529 21.7241 11.1381 21.7241L 11.1232 21.7241C 10.8551 21.8419 10.5871 21.9008 10.3042 21.9008C 10.0808 21.9008 9.87237 21.8713 9.64901 21.7977L 9.63412 21.7977C 9.61923 21.7977 9.60434 21.8124 9.58945 21.8272L 7.44522 25.1535L 7.43033 25.1682C 7.41544 25.1829 7.41544 25.2124 7.43033 25.2271L 17.2878 34.9853C 17.3027 35 17.3176 35 17.3176 35C 17.3325 35 17.3474 35 17.3474 34.9853L 19.0747 33.2632C 19.0896 33.2485 19.0896 33.2191 19.0747 33.2044L 11.1827 21.7536ZM 9.79791 17.9121C 9.81281 17.9268 9.8277 17.9415 9.84259 17.9415L 9.85748 17.9415C 10.0064 17.9121 10.1702 17.8827 10.3191 17.8827C 10.4829 17.8827 10.6616 17.9121 10.8254 17.9563L 10.8402 17.9563C 10.8551 17.9563 10.87 17.9415 10.8849 17.9268L 14.8756 11.7452C 14.8904 11.7304 14.8904 11.701 14.8756 11.6863C 14.5629 11.3625 14.3842 10.9357 14.3842 10.4794C 14.3842 10.3469 14.3991 10.2145 14.4288 10.082C 14.4288 10.0526 14.414 10.0378 14.3991 10.0231C 13.8928 9.80235 9.41076 7.91842 9.41076 7.9037L 9.39587 7.9037C 9.38098 7.9037 9.36609 7.9037 9.36609 7.91842L 5.56903 11.6863C 5.55414 11.701 5.55414 11.7304 5.56903 11.7452L 9.79791 17.9121ZM 10.2297 7.13835C 10.2297 7.13835 14.7564 9.05172 14.95 9.14003L 14.9649 9.14003C 14.9798 9.14003 14.9798 9.14003 14.9947 9.12532C 15.3074 8.87511 15.7094 8.72792 16.1115 8.72792C 16.305 8.72792 16.4986 8.75736 16.6922 8.81623L 16.7071 8.81623C 16.722 8.81623 16.7369 8.80151 16.7518 8.7868L 20.4297 3.09083C 20.4446 3.07611 20.4446 3.04668 20.4297 3.03196L 17.3772 0.0147183C 17.3623 0 17.3623 0 17.3474 0C 17.3325 0 17.3176 0 17.3176 0.0147183L 10.2297 7.05004C 10.2148 7.06476 10.2148 7.07948 10.2148 7.0942C 10.2 7.12363 10.2148 7.12363 10.2297 7.13835ZM 8.47267 18.9865C 8.48756 18.9865 8.50245 18.9718 8.51734 18.9571C 8.60668 18.7805 8.74069 18.6186 8.87471 18.4714C 8.8896 18.4567 8.8896 18.4272 8.87471 18.4125C 8.83004 18.3537 4.79472 12.5252 4.79472 12.5105C 4.77983 12.4958 4.77983 12.4958 4.75005 12.4811C 4.73516 12.4811 4.72027 12.4811 4.72027 12.4958L 0.0148904 17.1468C 0 17.1615 0 17.1762 0 17.1909C 0 17.2056 0.0148904 17.2204 0.0446713 17.2204L 8.47267 18.9865C 8.45777 18.9865 8.45777 18.9865 8.47267 18.9865ZM 8.08551 20.0021C 8.08551 19.9727 8.07062 19.9579 8.04084 19.9579L 0.729632 18.442C 0.729632 18.442 0.729632 18.442 0.714742 18.442C 0.699851 18.442 0.684961 18.4567 0.67007 18.4714C 0.65518 18.4861 0.67007 18.5156 0.684961 18.5303L 3.94597 21.7683C 3.96086 21.783 3.97575 21.783 3.97575 21.783L 3.99064 21.783L 8.04084 20.061C 8.07062 20.0315 8.08551 20.0168 8.08551 20.0021Z" fill="url(#paint0_radial)"/>
</g>
</g>
</g>
</g>
</g>
</g>
</g>
</g>
</g>
</g>
</g>
</g>
</g>
</g>
</g>
<defs>

<radialGradient id="paint0_radial" cx="0.5" cy="0.5" r="0.5" gradientUnits="userSpaceOnUse" gradientTransform="translate(-17.5 -35) scale(70)">
<stop stop-color="#20C6B7"/>
<stop offset="1" stop-color="#4D9ABF"/>
</radialGradient>

</defs>
</svg>

