<svg width="35" height="35" viewBox="0 0 35 35" version="1.1" xmlns="http://www.w3.org/2000/svg" xmlns:xlink="http://www.w3.org/1999/xlink">
<g id="Canvas" fill="none">
<g id="rails">
<g id="Vector">
<path fill-rule="evenodd" clip-rule="evenodd" d="M 30.3938 3.47691C 26.9487 1.77047 23.4201 1.59679 19.8073 2.87882C 16.4828 4.05857 13.8308 6.16959 11.8593 9.04472C 8.5235 13.9099 6.10043 19.2185 4.74255 24.9852C 4.0471 27.9365 3.59664 31.0669 3.71772 34.1149C 3.7276 34.3622 3.76429 34.4334 3.78857 35L 20.8265 35C 20.7777 34.4334 20.7455 34.5988 20.7032 34.4909C 19.8071 32.1943 19.0975 29.7691 18.6067 27.3518C 17.9016 23.8808 17.5325 20.3455 18.2606 16.8426C 19.2798 11.9374 22.0653 8.39819 26.761 6.56284C 29.4209 5.5239 31.9456 5.8194 34.1598 7.77035C 34.1801 7.7882 34.2219 7.77743 34.276 7.78621L 35 6.68608C 33.6057 5.35362 32.0737 4.30931 30.3938 3.47691L 30.3938 3.47691ZM 0.378207 26.0454C 0.248375 27.1568 0.12701 28.1975 1.45351e-08 29.2897L 3.14194 29.6682L 3.71744 26.2987C 2.57294 26.2117 1.48602 26.1292 0.378207 26.0454L 0.378207 26.0454ZM 6.54525 16.3598L 3.58987 15.199L 2.63475 17.9209L 5.64658 18.8898C 5.95141 18.0311 6.23817 17.2233 6.54525 16.3598L 6.54525 16.3598ZM 20.4935 31.5625C 21.5025 31.6378 22.5135 31.6897 23.6272 31.7548C 23.2228 30.9108 22.8635 30.1476 22.4873 29.3934C 22.4461 29.3115 22.3069 29.2324 22.2124 29.231C 21.3563 29.2186 20.4997 29.2239 19.59 29.2239C 19.7949 29.9685 19.973 30.6556 20.1816 31.3327C 20.2129 31.435 20.3812 31.5543 20.4935 31.5625L 20.4935 31.5625ZM 11.5542 8.11373L 9.30899 6.6212C 8.70724 7.29635 8.12695 7.94714 7.51419 8.63419L 9.82239 10.1913L 11.5542 8.11373ZM 18.7046 23.2343C 18.7009 23.3252 18.7825 23.47 18.8621 23.506C 19.6707 23.8709 20.4878 24.2185 21.3775 24.6033C 21.3405 23.8972 21.3157 23.3071 21.2736 22.7181C 21.266 22.6121 21.2163 22.4597 21.1381 22.416C 20.3955 22.0035 19.6425 21.6094 18.8192 21.1708C 18.7743 21.9259 18.7286 22.5795 18.7046 23.2343L 18.7046 23.2343ZM 18.0394 2.78646L 16.5023 1.03525L 14.3857 2.13964C 14.9152 2.78731 15.4151 3.39843 15.9254 4.02202L 18.0394 2.78646ZM 19.0032 16.719C 18.9572 16.825 19.0179 17.0497 19.1085 17.1315C 19.7224 17.6874 20.3572 18.2195 21.0633 18.8261C 21.2251 18.1461 21.3775 17.5401 21.5067 16.9298C 21.5296 16.8213 21.4977 16.642 21.4226 16.5813C 20.8734 16.1368 20.3064 15.7135 19.7187 15.2636C 19.4605 15.7778 19.2101 16.2391 19.0032 16.719ZM 22.5172 1.86623C 23.3018 1.88748 24.0873 1.87813 24.916 1.87813C 24.8333 1.29902 24.7938 0.860161 24.6953 0.435464C 24.6659 0.309103 24.4765 0.14081 24.3487 0.130044C 23.562 0.0660137 22.7723 0.0413648 21.907 -2.43176e-08C 22.0224 0.58449 22.1105 1.09957 22.2349 1.60586C 22.2612 1.71324 22.4175 1.8634 22.5172 1.86623L 22.5172 1.86623ZM 23.4726 11.9737C 23.5127 11.8983 23.5228 11.7615 23.4808 11.6958C 23.0952 11.0903 22.6947 10.4942 22.2801 9.86692L 20.9366 11.1056L 22.7943 13.1721C 23.0438 12.7361 23.2671 12.3596 23.4726 11.9737L 23.4726 11.9737ZM 24.9219 7.85789L 25.7243 9.35411C 26.98 8.66337 27.1003 8.41349 26.6557 7.4179L 24.9219 7.85789L 24.9219 7.85789ZM 30.93 3.24742C 31.4525 3.57097 32.0043 3.84664 32.5648 4.1498L 32.9402 3.56332C 32.2566 3.06156 31.5967 2.57623 30.8479 2.02603C 30.8185 2.33881 30.7748 2.55725 30.7861 2.77314C 30.7951 2.93775 30.8225 3.18112 30.93 3.24742L 30.93 3.24742ZM 30.2013 7.98426C 30.7658 8.04574 31.6125 8.10438 32.177 8.16643L 32.177 7.39637C 31.6125 7.27227 30.7658 7.14931 30.2013 7.02153L 30.2013 7.98426Z" fill="#A62C46"/>
</g>
</g>
</g>
</svg>

