<svg width="35" height="35" viewBox="0 0 35 35" version="1.1" xmlns="http://www.w3.org/2000/svg" xmlns:xlink="http://www.w3.org/1999/xlink">
<g id="Canvas" fill="none">
<g id="trello-mark-blue">
<g id="Page 1">
<g id="Logos">
<g id="Group">
<g id="Trello Logo">
<g id="Trello Mark   Blue   Flat">
<g id="Mark">
<g id="Board">
<path d="M 30.625 0L 4.375 0C 1.95875 0 0 1.95875 0 4.375L 0 30.625C 0 33.0412 1.95875 35 4.375 35L 30.625 35C 33.0412 35 35 33.0412 35 30.625L 35 4.375C 35 1.95875 33.0412 0 30.625 0Z" fill="#0079BF"/>
</g>
<g id="Right List">
<path d="M 8.575 0L 2.1 0C 0.940202 0 0 0.940202 0 2.1L 0 13.2125C 0 14.3723 0.940202 15.3125 2.1 15.3125L 8.575 15.3125C 9.7348 15.3125 10.675 14.3723 10.675 13.2125L 10.675 2.1C 10.675 0.940202 9.7348 0 8.575 0Z" transform="translate(19.7749 4.55005)" fill="white"/>
</g>
<g id="Left List">
<path d="M 8.575 0L 2.1 0C 0.940202 0 0 0.940202 0 2.1L 0 21.9625C 0 23.1223 0.940202 24.0625 2.1 24.0625L 8.575 24.0625C 9.7348 24.0625 10.675 23.1223 10.675 21.9625L 10.675 2.1C 10.675 0.940202 9.7348 0 8.575 0Z" transform="translate(4.55029 4.55005)" fill="white"/>
</g>
</g>
</g>
</g>
</g>
</g>
</g>
</g>
</g>
</svg>

